# xmcd CD database file
#
# Track frame offsets:
#	150
#	26360
#	46782
#	70015
#	98772
#	129367
#	171705
#	195300
#	248780
#	254785
#	260555
#	265992
#	270547
#	281130
#	284167
#	293132
#	300072
#	307380
#
# Disc length: 4305 seconds
#
# Revision: 1
# Processed by: cddbd v1.5.2PL0 Copyright (c) Steve Scherf et al.
# Submitted via: CDex 1.51
#
DISCID=1510cf12
DTITLE=I Musici de Montréal - Turovsky - Pirzadeh - Glazunov Piano Concerto No.1 Op.92 in F minor
DYEAR=1997
DGENRE=Concerto
TTITLE0=Violin Concerto in A minor Op.54 -I- Allegro
TTITLE1=Violin Concerto in A minor Op.54 -II- Adagio non troppo - Allegro
TTITLE2=Violin Concerto in A minor Op.54 -III- Tempi di valse
TTITLE3=Violin Concerto in A minor Op.54 -IV- Poco meno mosso
TTITLE4=Concerto ballata for Cello and Orchestra in C -I- Allegro commodo
TTITLE5=Concerto ballata for Cello and Orchestra in C -II- Adagio - Più mosso allegro
TTITLE6=Concerto ballata for Cello and Orchestra in C -III- Allegro marciale
TTITLE7=Piano Concerto No.1 Op.92 in F minor -I- Allegro moderato
TTITLE8=Piano Concerto No.1 Op.92 in F minor -II- Theme: Andantino tranquillo
TTITLE9=Piano Concerto No.1 Op.92 in F minor -II- Variation I
TTITLE10=Piano Concerto No.1 Op.92 in F minor -II- Variation II (Chromatica) Andantino
TTITLE11=Piano Concerto No.1 Op.92 in F minor -II- Variation III (Eroica) Allegro moderato
TTITLE12=Piano Concerto No.1 Op.92 in F minor -II- Variation IV (Lyrica) Adagio
TTITLE13=Piano Concerto No.1 Op.92 in F minor -II- Variation V (Intermezzo) Allegro
TTITLE14=Piano Concerto No.1 Op.92 in F minor -II- Variation VI (quasi una fantasia) Lento
TTITLE15=Piano Concerto No.1 Op.92 in F minor -II- Variation VII (Mazurka) Allegretto
TTITLE16=Piano Concerto No.1 Op.92 in F minor -II- Variation VIII (Scherzando) Allegro ma non troppo
TTITLE17=Piano Concerto No.1 Op.92 in F minor -II- Variation IX (Finale) Allegro moderato
EXTD=Alexander Trostiansky-Violin, Yegor Dyachkov-Cello, Manila Pirzadeh-Piano, Eleonora Turovsky-Leader, with Members of the Sherbrooke Symphony Orchestra\nChandos - CHAN 9528 DDD YEAR: 1997
EXTT0=
EXTT1=
EXTT2=
EXTT3=
EXTT4=
EXTT5=
EXTT6=
EXTT7=
EXTT8=
EXTT9=
EXTT10=
EXTT11=
EXTT12=
EXTT13=
EXTT14=
EXTT15=
EXTT16=
EXTT17=
PLAYORDER=
